# xmcd
#
# Track frame offsets:
#	150
#	29595
#	64493
#	107482
#	143303
#	182488
#	215022
#	254058
#
# Disc length: 3866 seconds
#
# Revision: 1
# Processed by: cddbd v1.4PL0 Copyright (c) Steve Scherf et al.
# Submitted via: EasyCDDAExtractor 5.0.7
#
DISCID=750f1808
DTITLE=Phuong Lien - On Nghia Sinh Thanh
DYEAR=1900
DGENRE=VongCo
TTITLE0=Que Me
TTITLE1=Kim Van Kieu
TTITLE2=La Bang Roi
TTITLE3=Ngay Gio Nho Cha
TTITLE4=Han Mac Tu
TTITLE5=Nho Ke Phu Tinh
TTITLE6=Khoc Bang Phi
TTITLE7=On Nghia Sinh Thanh
EXTD=
EXTT0=
EXTT1=
EXTT2=
EXTT3=
EXTT4=
EXTT5=
EXTT6=
EXTT7=
PLAYORDER=
